HIERARCHY
ROOT Hips
{
	OFFSET 51.547699 -45.188816 97.038490
	CHANNELS 6 Xposition Yposition Zposition Xrotation Yrotation Zrotation
	JOINT spine
	{
		OFFSET 0.000000 -0.458069 7.965683
		CHANNELS 3 Xrotation Yrotation Zrotation
		JOINT spine1
		{
			OFFSET 0.000000 -0.000004 10.243103
			CHANNELS 3 Xrotation Yrotation Zrotation
			JOINT spine2
			{
				OFFSET 0.000000 0.000000 9.814751
				CHANNELS 3 Xrotation Yrotation Zrotation
				JOINT Neck
				{
					OFFSET 0.000000 -1.201385 25.198593
					CHANNELS 3 Xrotation Yrotation Zrotation
					JOINT Head
					{
						OFFSET 0.000000 -0.000004 7.613144
						CHANNELS 3 Xrotation Yrotation Zrotation
						End Site
						{
							OFFSET 0.000000 6.077328 18.428116
						}
					}
				}
				JOINT RightShoulder
				{
					OFFSET -4.132698 0.575447 10.599213
					CHANNELS 3 Xrotation Yrotation Zrotation
					JOINT RightArm
					{
						OFFSET 0.000000 0.000000 13.901794
						CHANNELS 3 Xrotation Yrotation Zrotation
						JOINT RightArmRoll
						{
							OFFSET 0.000000 -0.000004 7.017883
							CHANNELS 3 Xrotation Yrotation Zrotation
							JOINT RightForeArm
							{
								OFFSET 0.000000 -0.000004 20.440598
								CHANNELS 3 Xrotation Yrotation Zrotation
								JOINT RightForeArmRoll
								{
									OFFSET 0.000000 0.000000 7.875153
									CHANNELS 3 Xrotation Yrotation Zrotation
									JOINT RightHand
									{
										OFFSET 0.000000 -0.000004 15.803696
										CHANNELS 3 Xrotation Yrotation Zrotation
										End Site
										{
											OFFSET 0.000000 0.000000 0.100006
										}
									}
								}
							}
						}
					}
				}
				JOINT LeftShoulder
				{
					OFFSET 4.132698 0.575447 10.599213
					CHANNELS 3 Xrotation Yrotation Zrotation
					JOINT LeftArm
					{
						OFFSET 0.000000 0.000000 13.901794
						CHANNELS 3 Xrotation Yrotation Zrotation
						JOINT LeftArmRoll
						{
							OFFSET 0.000000 -0.000004 7.017883
							CHANNELS 3 Xrotation Yrotation Zrotation
							JOINT LeftForeArm
							{
								OFFSET 0.000000 -0.000004 20.440598
								CHANNELS 3 Xrotation Yrotation Zrotation
								JOINT LeftForeArmRoll
								{
									OFFSET 0.000000 0.000000 7.875153
									CHANNELS 3 Xrotation Yrotation Zrotation
									JOINT LeftHand
									{
										OFFSET 0.000000 -0.000004 15.803696
										CHANNELS 3 Xrotation Yrotation Zrotation
										End Site
										{
											OFFSET 0.000000 0.000000 0.100006
										}
									}
								}
							}
						}
					}
				}
			}
		}
	}
	JOINT RightUpLeg
	{
		OFFSET -7.060478 1.086090 -1.294701
		CHANNELS 3 Xrotation Yrotation Zrotation
		JOINT RightUpLegRoll
		{
			OFFSET 0.000000 -0.000004 18.530800
			CHANNELS 3 Xrotation Yrotation Zrotation
			JOINT RightLeg
			{
				OFFSET 0.000000 0.000004 -22.947601
				CHANNELS 3 Xrotation Yrotation Zrotation
				JOINT RightLegRoll
				{
					OFFSET 0.000000 -0.000004 23.022598
					CHANNELS 3 Xrotation Yrotation Zrotation
					JOINT RightFoot
					{
						OFFSET 0.000000 -0.000004 19.162514
						CHANNELS 3 Xrotation Yrotation Zrotation
						JOINT RightToeBase
						{
							OFFSET 0.000000 0.000000 16.018799
							CHANNELS 3 Xrotation Yrotation Zrotation
							End Site
							{
								OFFSET 0.006790 0.894203 7.757828
							}
						}
					}
				}
			}
		}
	}
	JOINT LeftUpLeg
	{
		OFFSET 7.060478 1.086090 -1.294701
		CHANNELS 3 Xrotation Yrotation Zrotation
		JOINT LeftUpLegRoll
		{
			OFFSET 0.000000 -0.000004 18.530899
			CHANNELS 3 Xrotation Yrotation Zrotation
			JOINT LeftLeg
			{
				OFFSET 0.000000 -0.000004 22.947510
				CHANNELS 3 Xrotation Yrotation Zrotation
				JOINT LeftLegRoll
				{
					OFFSET 0.000000 -0.000004 23.235504
					CHANNELS 3 Xrotation Yrotation Zrotation
					JOINT LeftFoot
					{
						OFFSET 0.000000 -0.000004 18.949600
						CHANNELS 3 Xrotation Yrotation Zrotation
						JOINT LeftToeBase
						{
							OFFSET 0.000000 0.000000 16.018799
							CHANNELS 3 Xrotation Yrotation Zrotation
							End Site
							{
								OFFSET -0.030430 0.894203 7.757828
							}
						}
					}
				}
			}
		}
	}
}
MOTION
Frames: 10
Frame Time: 0.041667
50.151798 -0.789974 54.524784 -12.177812 -1.423759 6.803613 5.020416 -0.270534 -0.422743 14.062875 -0.594976 -0.827151 15.707900 -0.604778 -0.819522 -14.062956 11.056589 1.237847 28.835406 -12.620435 2.662088 -7.654073 -54.751585 -8.714048 -52.464128 -135.307345 -65.752756 -0.000000 -0.000004 0.000001 64.554549 -6.422405 0.518130 0.000004 0.000001 -2.999989 -5.000374 -7.999323 0.000109 -18.789908 58.840782 22.210927 115.381470 47.337610 -80.935938 0.000000 0.000009 -0.000009 73.791520 9.563994 -1.555915 0.000019 -0.000003 3.000002 -4.999754 7.998921 -0.000032 -78.628871 -166.529438 2.632060 179.999991 0.000005 -1.642996 81.904425 4.929186 2.491130 -0.000005 -0.000005 2.276809 67.574880 7.114467 1.681767 27.003322 -7.300026 2.294757 -79.782217 176.330240 0.526999 0.000010 -0.000003 -1.509570 -90.156639 -4.334272 -1.358532 0.000001 -0.000001 -1.959559 63.864045 -7.253762 -1.621761 25.456854 7.352507 0.000005 
50.154900 -0.778179 54.534290 -12.164794 -1.419987 6.801955 5.017715 -0.272623 -0.422751 14.056584 -0.598033 -0.827281 15.701714 -0.607837 -0.819654 -14.060678 11.078865 1.242926 28.836854 -12.636349 2.667022 -7.650400 -54.732355 -8.708091 -52.426189 -135.309558 -65.713441 -0.000000 -0.000004 0.000000 64.576037 -6.415800 0.513892 0.000003 0.000001 -2.999992 -5.000370 -7.999322 0.000111 -18.816287 58.860726 22.242168 115.356349 47.350601 -80.896631 0.000000 0.000010 -0.000010 73.807181 9.562604 -1.554447 0.000019 -0.000002 3.000000 -4.999759 7.998921 -0.000032 -78.644724 -166.544546 2.624751 179.999991 0.000005 -1.642997 81.911488 4.933693 2.492241 -0.000005 -0.000005 2.276770 67.567721 7.114473 1.681331 27.002110 -7.300027 2.292723 -79.797483 176.331852 0.530639 0.000011 -0.000003 -1.509600 -90.153716 -4.335980 -1.359917 0.000001 -0.000001 -1.959560 63.861470 -7.254278 -1.620753 25.456856 7.352510 0.000006 
50.149300 -0.769474 54.525494 -12.152569 -1.416278 6.800411 5.015139 -0.274743 -0.422765 14.050592 -0.601079 -0.827478 15.695619 -0.610887 -0.819854 -14.058298 11.101048 1.248071 28.838616 -12.652229 2.672084 -7.646570 -54.712544 -8.701906 -52.387906 -135.312673 -65.672549 -0.000001 -0.000004 0.000003 64.596958 -6.408966 0.509467 0.000004 0.000001 -2.999990 -5.000370 -7.999325 0.000108 -18.843092 58.880718 22.273906 115.330968 47.363342 -80.856838 0.000001 0.000010 -0.000007 73.823519 9.560965 -1.552679 0.000017 -0.000004 3.000002 -4.999760 7.998922 -0.000030 -78.659962 -166.558958 2.616987 179.999991 0.000005 -1.642996 81.918618 4.938066 2.493344 -0.000005 -0.000005 2.276710 67.560652 7.114416 1.680975 27.000892 -7.300022 2.290648 -79.811949 176.333600 0.533157 0.000010 -0.000004 -1.509640 -90.151018 -4.337772 -1.361422 0.000001 -0.000001 -1.959560 63.858901 -7.254797 -1.619745 25.456854 7.352507 0.000007 
50.150101 -0.773842 54.519085 -12.140946 -1.412635 6.798924 5.012651 -0.276884 -0.422782 14.044697 -0.604120 -0.827722 15.689827 -0.613931 -0.820102 -14.055921 11.123229 1.253282 28.840679 -12.668074 2.677256 -7.642691 -54.692521 -8.695637 -52.349042 -135.316552 -65.630181 -0.000001 -0.000004 -0.000000 64.617435 -6.402011 0.504943 0.000002 -0.000002 -2.999992 -5.000372 -7.999322 0.000108 -18.870226 58.900758 22.306042 115.305259 47.375725 -80.816574 0.000001 0.000010 -0.000008 73.840335 9.559126 -1.550773 0.000019 -0.000002 3.000001 -4.999758 7.998919 -0.000029 -78.674326 -166.573315 2.610833 179.999991 0.000005 -1.642997 81.925817 4.942366 2.494234 -0.000005 -0.000005 2.276630 67.553699 7.114365 1.680514 26.999584 -7.300024 2.288540 -79.826053 176.335226 0.536163 0.000010 -0.000003 -1.509690 -90.148477 -4.339665 -1.362930 0.000001 -0.000001 -1.959551 63.856333 -7.255310 -1.618737 25.456856 7.352508 0.000007 
50.153000 -0.768566 54.526779 -12.129620 -1.409018 6.797485 5.010201 -0.279038 -0.422802 14.038904 -0.607157 -0.827992 15.684035 -0.616974 -0.820377 -14.053442 11.145422 1.258523 28.842847 -12.683905 2.682480 -7.638720 -54.672218 -8.689241 -52.309618 -135.321197 -65.586550 0.000001 -0.000004 0.000001 64.637591 -6.395040 0.500399 0.000003 -0.000001 -2.999991 -5.000375 -7.999324 0.000109 -18.897590 58.920866 22.338433 115.279441 47.388023 -80.776051 -0.000000 0.000008 -0.000006 73.857349 9.557228 -1.548897 0.000019 -0.000001 3.000001 -4.999759 7.998921 -0.000032 -78.688663 -166.587166 2.603438 179.999991 0.000005 -1.642996 81.932996 4.946630 2.495127 -0.000006 -0.000005 2.276539 67.546630 7.114302 1.680157 26.998365 -7.300023 2.286447 -79.839775 176.336729 0.539431 0.000011 -0.000004 -1.509740 -90.146011 -4.341543 -1.364437 0.000001 -0.000001 -1.959540 63.853765 -7.255870 -1.617639 25.456854 7.352513 0.000004 
50.150902 -0.766468 54.519478 -12.118400 -1.405401 6.796060 5.007771 -0.281194 -0.422821 14.033114 -0.610193 -0.828270 15.678248 -0.620015 -0.820658 -14.051069 11.167607 1.263780 28.845009 -12.699732 2.687715 -7.634779 -54.651905 -8.682868 -52.270970 -135.325268 -65.543957 0.000000 -0.000004 -0.000000 64.657842 -6.387966 0.495783 0.000005 0.000000 -2.999989 -5.000372 -7.999325 0.000107 -18.925064 58.941056 22.370946 115.253609 47.400297 -80.735418 0.000001 0.000009 -0.000008 73.874554 9.555251 -1.546942 0.000021 -0.000003 3.000001 -4.999759 7.998919 -0.000028 -78.702685 -166.601155 2.597069 179.999991 0.000005 -1.642997 81.940181 4.950886 2.496115 -0.000005 -0.000005 2.276460 67.539561 7.114239 1.679805 26.997054 -7.300024 2.284331 -79.853429 176.338409 0.541818 0.000010 -0.000006 -1.509790 -90.143573 -4.343434 -1.365945 0.000001 -0.000001 -1.959530 63.851197 -7.256386 -1.616632 25.456860 7.352510 0.000006 
50.150299 -0.755695 54.516399 -12.106980 -1.401785 6.794608 5.005309 -0.283343 -0.422840 14.027323 -0.613231 -0.828535 15.672453 -0.623056 -0.820928 -14.048592 11.189796 1.269007 28.847171 -12.715475 2.692881 -7.630836 -54.631688 -8.676517 -52.232219 -135.329284 -65.501487 0.000000 -0.000004 -0.000001 64.678101 -6.380980 0.491246 0.000003 0.000001 -2.999992 -5.000370 -7.999325 0.000108 -18.952446 58.961150 22.403367 115.227764 47.412571 -80.694963 0.000000 0.000009 -0.000008 73.891493 9.553409 -1.545053 0.000020 -0.000005 3.000000 -4.999758 7.998916 -0.000033 -78.717076 -166.615088 2.589870 179.999991 0.000005 -1.642996 81.947373 4.955144 2.497004 -0.000006 -0.000005 2.276369 67.532587 7.114144 1.679436 26.995744 -7.300026 2.282211 -79.867239 176.339953 0.545007 0.000011 -0.000004 -1.509850 -90.141101 -4.345408 -1.367553 0.000001 -0.000001 -1.959521 63.848718 -7.256876 -1.615610 25.456856 7.352507 0.000007 
50.150902 -0.743450 54.524097 -12.095252 -1.398121 6.793102 5.002804 -0.285478 -0.422858 14.021430 -0.616274 -0.828768 15.666560 -0.626103 -0.821164 -14.046229 11.212080 1.274217 28.849148 -12.731333 2.698035 -7.626977 -54.611672 -8.670266 -52.193352 -135.333259 -65.459249 0.000001 -0.000004 0.000003 64.698694 -6.374096 0.486800 0.000002 0.000000 -2.999990 -5.000371 -7.999318 0.000109 -18.979637 58.981177 22.435565 115.202055 47.424998 -80.654705 0.000000 0.000008 -0.000008 73.908220 9.551600 -1.543233 0.000017 -0.000007 2.999999 -4.999757 7.998916 -0.000032 -78.731727 -166.629350 2.582807 179.999991 0.000005 -1.642997 81.954511 4.959496 2.497996 -0.000005 -0.000005 2.276298 67.525525 7.114078 1.679077 26.994528 -7.300026 2.280128 -79.881330 176.341605 0.547701 0.000010 -0.000003 -1.509890 -90.138498 -4.347199 -1.369054 0.000001 -0.000001 -1.959521 63.846149 -7.257394 -1.614602 25.456858 7.352508 0.000007 
50.155602 -0.744034 54.522083 -12.082731 -1.394402 6.791508 5.000182 -0.287588 -0.422871 14.015336 -0.619323 -0.828949 15.660469 -0.629156 -0.821348 -14.043858 11.234268 1.279318 28.850822 -12.747310 2.703112 -7.623260 -54.592152 -8.664226 -52.154973 -135.336442 -65.418630 -0.000001 -0.000004 0.000002 64.719744 -6.367378 0.482440 0.000003 0.000001 -2.999991 -5.000370 -7.999320 0.000109 -19.006492 59.001046 22.467342 115.176647 47.437754 -80.614967 -0.000000 0.000009 -0.000010 73.924292 9.550077 -1.541522 0.000018 -0.000004 2.999999 -4.999761 7.998919 -0.000030 -78.747150 -166.644007 2.575321 179.999991 0.000005 -1.642996 81.961587 4.963927 2.499101 -0.000005 -0.000005 2.276239 67.518462 7.114051 1.678729 26.993220 -7.300029 2.278050 -79.896145 176.343340 0.550635 0.000010 -0.000004 -1.509930 -90.135739 -4.348986 -1.370458 0.000001 -0.000001 -1.959510 63.843472 -7.257932 -1.613607 25.456858 7.352507 0.000006 
50.153000 -0.746487 54.512775 -12.069409 -1.390608 6.789797 4.997431 -0.289665 -0.422879 14.009044 -0.622382 -0.829058 15.654082 -0.632218 -0.821460 -14.041597 11.256547 1.284335 28.852191 -12.763235 2.708003 -7.619642 -54.573024 -8.658352 -52.116864 -135.338696 -65.379554 0.000001 -0.000004 0.000004 64.741464 -6.360869 0.478173 0.000002 -0.000001 -2.999994 -5.000371 -7.999325 0.000108 -19.032947 59.020880 22.498641 115.151471 47.450752 -80.575789 -0.000000 0.000010 -0.000010 73.939701 9.548806 -1.540114 0.000019 -0.000002 3.000002 -4.999762 7.998918 -0.000033 -78.763296 -166.659512 2.568271 179.999991 0.000006 -1.642996 81.968718 4.968440 2.500108 -0.000005 -0.000005 2.276210 67.511331 7.114086 1.678196 26.992008 -7.300026 2.276025 -79.911683 176.345130 0.553694 0.000010 -0.000005 -1.509950 -90.132734 -4.350673 -1.371840 0.000001 -0.000001 -1.959509 63.840924 -7.258491 -1.612509 25.456861 7.352512 0.000005 
